<?xml version="1.0" encoding="UTF-8" standalone="no"?>
<!-- Created with Inkscape (http://www.inkscape.org/) -->

<svg
   width="210mm"
   height="55mm"
   viewBox="0 0 210 55"
   version="1.1"
   id="svg5"
   xml:space="preserve"
   inkscape:version="1.2.2 (b0a8486541, 2022-12-01)"
   sodipodi:docname="architeuthis.svg"
   inkscape:export-filename="architeuthis.webp"
   inkscape:export-xdpi="193.5238"
   inkscape:export-ydpi="193.5238"
   xmlns:inkscape="http://www.inkscape.org/namespaces/inkscape"
   xmlns:sodipodi="http://sodipodi.sourceforge.net/DTD/sodipodi-0.dtd"
   xmlns="http://www.w3.org/2000/svg"
   xmlns:svg="http://www.w3.org/2000/svg"><sodipodi:namedview
     id="namedview7"
     pagecolor="#7d7d7d"
     bordercolor="#cccccc"
     borderopacity="1"
     inkscape:showpageshadow="0"
     inkscape:pageopacity="0"
     inkscape:pagecheckerboard="0"
     inkscape:deskcolor="#d1d1d1"
     inkscape:document-units="mm"
     showgrid="false"
     inkscape:zoom="1.1893044"
     inkscape:cx="326.24112"
     inkscape:cy="561.67286"
     inkscape:window-width="3840"
     inkscape:window-height="2084"
     inkscape:window-x="0"
     inkscape:window-y="39"
     inkscape:window-maximized="1"
     inkscape:current-layer="layer1" /><defs
     id="defs2"><rect
       x="162.4458"
       y="90.303314"
       width="473.33044"
       height="55.361912"
       id="rect1258" /><rect
       x="174.37813"
       y="25.802565"
       width="570.69"
       height="75.301056"
       id="rect1148" /></defs><g
     inkscape:label="Layer 1"
     inkscape:groupmode="layer"
     id="layer1"><g
       style="fill:#ffffff"
       id="g1254"
       transform="matrix(0.0866915,0,0,0.0866915,-89.16533,-33.156488)"><g
         id="g1241"
         style="fill:#ffffff">
	<g
   id="g1239"
   style="fill:#ffffff">
		<g
   id="g1237"
   style="fill:#ffffff">
			<circle
   cx="199.433"
   cy="212.323"
   r="9.1339998"
   id="circle1231"
   style="fill:#ffffff" />
			<path
   d="m 470.409,212.571 c -5.039,0.24 -8.93,4.519 -8.69,9.558 0.481,10.105 -3.073,19.673 -10.005,26.943 -6.942,7.279 -16.3,11.289 -26.352,11.289 -5.674,0 -11.09,-1.26 -16.096,-3.744 -4.52,-2.246 -10.001,-0.397 -12.242,4.121 -2.242,4.519 -0.397,10.001 4.122,12.243 7.553,3.748 15.7,5.648 24.218,5.648 15.096,0 29.149,-6.019 39.572,-16.951 10.414,-10.92 15.752,-25.274 15.032,-40.416 -0.241,-5.038 -4.494,-8.926 -9.559,-8.691 z"
   id="path1233"
   style="fill:#ffffff" />
			<path
   d="m 511.9,219.745 c -1.018,-21.41 -9.989,-41.629 -25.26,-56.933 -15.271,-15.304 -35.471,-24.318 -56.879,-25.38 -1.461,-0.072 -2.941,-0.11 -4.399,-0.11 -13.874,0 -27.129,3.187 -39.4,9.471 -25.657,13.137 -54.544,20.08 -83.543,20.08 h -60.364 c -1.546,0 -3.001,0.387 -4.277,1.065 l -0.001,-0.002 c 0,0 -27.862,11.422 -106.434,-29.578 -32.281,-16.844 -59.384,-19.183 -80.557,-6.943 -27.165,15.702 -35.632,50.828 -36.315,67.206 -0.145,3.479 1.7,6.736 4.758,8.402 1.367,0.743 2.869,1.112 4.367,1.112 1.853,0 3.699,-0.563 5.272,-1.675 0.482,-0.34 46.352,-31.703 71.157,-13.571 -13.957,5.278 -29.032,14.666 -43.571,30.754 -6.194,6.854 -14.827,11.104 -23.686,11.659 -7.073,0.436 -12.921,-1.298 -17.864,-5.324 -2.773,-2.26 -6.611,-2.695 -9.819,-1.106 -3.207,1.587 -5.193,4.899 -5.08,8.476 0.187,5.907 3.695,18.066 15.655,26.163 8.154,5.52 18.755,8.335 31.723,8.459 -6.991,4.435 -19.255,10.189 -40.713,16.205 -3.269,0.917 -5.76,3.571 -6.468,6.893 -0.707,3.32 0.486,6.76 3.099,8.929 0.684,0.569 17.002,14.014 38.254,22.498 11.551,4.612 22.374,6.907 32.319,6.907 9.136,0 17.527,-1.943 25.061,-5.799 2.456,31.845 23.827,47.026 38.997,53.837 10.269,4.61 21.105,6.857 31.835,6.857 19.388,-0.001 38.418,-7.339 53.065,-21.329 12.355,-11.801 17.995,-24.914 16.766,-38.974 -1.497,-17.12 -13.231,-31.314 -22.42,-39.965 7.327,-2.74 17.167,-5.358 25.735,-6.983 h 59.503 c 28.579,0 57.016,6.921 84.52,20.57 12.011,5.96 24.941,8.981 38.429,8.981 23.923,0 46.193,-9.538 62.708,-26.855 16.501,-17.308 24.965,-40.036 23.827,-63.997 z M 38.758,252.993 c 11.822,-1.903 23.006,-7.979 31.25,-17.1 38.57,-42.681 80.435,-28.899 82.242,-28.276 4.735,1.668 9.941,-0.807 11.632,-5.544 1.697,-4.75 -0.779,-9.977 -5.53,-11.674 -1.201,-0.428 -17.201,-5.903 -39.086,-2.567 -0.353,-1.548 -1.104,-3.027 -2.278,-4.261 -23.566,-24.775 -59.386,-13.102 -80.789,-2.463 3.72,-12.175 10.89,-26.459 23.727,-33.879 15.404,-8.904 36.589,-6.44 62.964,7.324 59.193,30.889 93.153,34.353 110.029,32.788 v 48.983 c -11.65,-0.771 -41.578,-1.347 -64.004,10.408 -0.188,-0.132 -0.377,-0.266 -0.579,-0.386 -32.512,-19.428 -59.586,-7.353 -64.729,-4.713 -32.867,11.889 -52.872,13.262 -64.849,11.36 z m 182.641,76.643 c 0.715,8.358 -2.946,16.25 -11.189,24.124 -17.085,16.322 -43.125,20.748 -64.797,11.017 -26.742,-12.008 -34.595,-35 -24.008,-70.289 1.449,-4.832 -1.292,-9.923 -6.124,-11.374 -4.831,-1.443 -9.923,1.295 -11.373,6.124 -1.547,5.158 -2.712,10.044 -3.549,14.683 -20.312,21.214 -52.164,7.385 -70.686,-3.827 22.885,-8.089 37.185,-17.227 42.601,-27.252 0.7,-1.295 1.207,-2.521 1.578,-3.673 11.075,-2.217 23.277,-5.74 36.6,-10.586 0.497,-0.18 0.976,-0.404 1.434,-0.668 0.19,-0.111 17.796,-9.923 41.24,1.02 -9.19,10.541 -12.859,24.122 -10.892,40.435 2.192,18.195 16.103,32.395 33.829,34.535 8.617,1.041 16.213,-1.162 21.967,-6.369 5.438,-4.922 9.012,-12.192 10.779,-22.011 6.092,6.654 11.832,15.245 12.59,24.111 z m -26.361,-50.073 c -0.138,0.126 -0.916,0.929 -1.058,1.1 -0.807,1.024 -2.085,3.14 -2.15,6.325 -0.001,0.065 0.015,2.82 -0.002,3.852 -0.245,15.475 -3.823,21.129 -6.056,23.15 -1.123,1.017 -3.124,2.31 -7.522,1.779 -9.197,-1.111 -16.718,-8.925 -17.881,-18.583 -1.432,-11.873 1.143,-20.934 7.87,-27.703 15.316,-15.408 49.565,-16.085 64.681,-14.862 v 9.851 h 0.001 c -10.95,2.466 -29.584,7.554 -37.883,15.091 z m 279.81,-8.427 c -13.034,13.668 -30.608,21.195 -49.487,21.195 -10.647,0 -20.844,-2.382 -30.309,-7.077 -30.049,-14.914 -61.218,-22.474 -92.64,-22.474 h -51.223 v -77.64 h 51.23 c 31.88,0 63.647,-7.637 91.87,-22.089 9.67,-4.952 20.124,-7.463 31.073,-7.463 1.157,0 2.331,0.029 3.493,0.087 34.686,1.723 63.148,30.245 64.796,64.935 0.899,18.925 -5.779,36.867 -18.803,50.526 z"
   id="path1235"
   style="fill:#ffffff" />
		</g>
	</g>
</g></g><rect
       style="fill:#111650;fill-opacity:1;stroke:none;stroke-width:0.712409;stroke-linecap:round;stroke-linejoin:round;paint-order:stroke fill markers;stop-color:#000000"
       id="rect1364"
       width="201.95395"
       height="48.264332"
       x="3.9310708"
       y="3.4525397"
       rx="5.8111115"
       ry="6.0650725" /><g
       id="g923"
       transform="matrix(0.06839517,0,0,0.06839517,9.6271674,11.13482)"
       style="fill:#ffffff">
	<path
   class="st0"
   d="M 421.993,198.286 342.54,25.24 C 338.306,16.006 330.056,9.287 320.165,7.006 310.274,4.74 299.899,7.162 292.056,13.615 L 144.915,134.489 c -6.109,5.016 -8.594,13.219 -6.328,20.797 2.281,7.578 8.859,13.047 16.719,13.875 l 29.703,3.156 -42.891,101.469 c -2.266,5.344 -2.031,11.406 0.609,16.578 1.25,2.484 8.688,9.406 16.719,16.094 -8.375,21.125 -27.469,74.609 -12.406,89.063 42.672,40.906 184.953,37.344 186.719,-7.109 l -1.375,-42.75 c 9.297,-1.344 20.516,-4.016 23.438,-6.234 4.625,-3.484 7.469,-8.844 7.781,-14.641 l 5.797,-110.016 28.078,10.156 c 7.453,2.688 15.766,0.656 21.125,-5.156 5.358,-5.829 6.702,-14.297 3.39,-21.485 z M 172.274,381.724 c -7.469,0 -13.531,-6.047 -13.531,-13.516 0,-7.453 6.063,-13.5 13.531,-13.5 7.453,0 13.5,6.047 13.5,13.5 0,7.469 -6.047,13.516 -13.5,13.516 z m 116.531,16.781 c -7.453,0 -13.516,-6.047 -13.516,-13.5 0,-7.469 6.063,-13.516 13.516,-13.516 7.469,0 13.516,6.047 13.516,13.516 0,7.453 -6.047,13.5 -13.516,13.5 z"
   id="path915"
   style="fill:#ffffff" />
	<path
   class="st0"
   d="m 73.258,164.661 c 19,26.594 11.672,60.656 -24.078,108.984 -46.89,63.36 -51.984,121.657 -48.172,148.266 3.797,26.625 62.109,20.281 64.641,2.547 4.297,-30.219 -22.672,-47.359 24.094,-145.75 36.734,-77.313 7.578,-117.859 -2.547,-128 -10.125,-10.125 -22.828,5.078 -13.938,13.953 z"
   id="path917"
   style="fill:#ffffff" />
	<path
   class="st0"
   d="m 504.242,251.802 c -13.891,-30.578 -40.297,-30.578 -23.609,5.563 31.953,59.766 -77.843,76.438 -72.281,148.719 1.063,13.922 51.203,18.969 56.984,2.781 6.953,-19.469 -4.172,-26.406 23.641,-58.375 24.546,-28.219 29.187,-68.11 15.265,-98.688 z"
   id="path919"
   style="fill:#ffffff" />
	<path
   class="st0"
   d="m 372.211,401.567 c 4.172,41.703 -38.766,64.438 -38.047,88.609 0.531,17.719 39.094,21.891 44.828,4.688 14.563,-40.313 15.156,-77.297 8.344,-95.906 -5.875,-16.031 -17.062,-16.687 -15.125,2.609 z"
   id="path921"
   style="fill:#ffffff" />
</g><text
       xml:space="preserve"
       transform="matrix(0.70606487,0,0,0.70606487,-74.932337,-16.489935)"
       id="text1146"
       style="font-size:40px;line-height:1.25;font-family:sans-serif;-inkscape-font-specification:sans-serif;text-decoration:none;text-decoration-line:none;text-decoration-color:#000000;white-space:pre;shape-inside:url(#rect1148);display:inline;fill:#ffffff;stroke:none;stroke-width:2.26772;stroke-linecap:round;stroke-linejoin:round;paint-order:stroke fill markers;stop-color:#000000"><tspan
         x="174.37891"
         y="62.802734"
         id="tspan1516"><tspan
           style="font-family:Quicksand;-inkscape-font-specification:Quicksand"
           id="tspan1514">architeuthis</tspan></tspan></text><text
       xml:space="preserve"
       transform="matrix(0.32269794,0,0,0.32269794,-2.6671168,2.253741)"
       id="text1256"
       style="font-style:normal;font-variant:normal;font-weight:normal;font-stretch:normal;font-size:40px;line-height:1.25;font-family:Quicksand;-inkscape-font-specification:Quicksand;text-decoration:none;text-decoration-line:none;text-decoration-color:#000000;white-space:pre;shape-inside:url(#rect1258);display:inline;fill:#ffffff;stroke:none;stroke-width:2.26772;stroke-linecap:round;stroke-linejoin:round;paint-order:stroke fill markers;stop-color:#000000"><tspan
         x="162.44531"
         y="127.30273"
         id="tspan1520"><tspan
           style="font-weight:300;font-family:'Open Sans';-inkscape-font-specification:'Open Sans Light'"
           id="tspan1518">release the kraken</tspan></tspan></text></g><style
     type="text/css"
     id="style913">
<![CDATA[
	.st0{fill:#000000;}
]]>
</style><style
     type="text/css"
     id="style1214">
<![CDATA[
	.st0{fill:#000000;}
]]>
</style></svg>
